<?xml version="1.0" encoding="UTF-8" standalone="no"?>
<!DOCTYPE svg PUBLIC "-//W3C//DTD SVG 1.1//EN"
 "http://www.w3.org/Graphics/SVG/1.1/DTD/svg11.dtd">
<!-- Generated by graphviz version 2.40.1 (20161225.0304)
 -->
<!-- Title: %3 Pages: 1 -->
<svg width="1355pt" height="404pt"
 viewBox="0.00 0.00 1354.71 404.00" xmlns="http://www.w3.org/2000/svg" xmlns:xlink="http://www.w3.org/1999/xlink">
<g id="graph0" class="graph" transform="scale(1 1) rotate(0) translate(4 400)">
<title>%3</title>
<polygon fill="#ffffff" stroke="transparent" points="-4,4 -4,-400 1350.7109,-400 1350.7109,4 -4,4"/>
<!-- [root] aws_instance.second_server -->
<g id="node1" class="node">
<title>[root] aws_instance.second_server</title>
<polygon fill="none" stroke="#000000" points="174.3268,-252 -.109,-252 -.109,-216 174.3268,-216 174.3268,-252"/>
<text text-anchor="middle" x="87.1089" y="-229.8" font-family="Times,serif" font-size="14.00" fill="#000000">aws_instance.second_server</text>
</g>
<!-- [root] aws_subnet.subnet2 -->
<g id="node4" class="node">
<title>[root] aws_subnet.subnet2</title>
<polygon fill="none" stroke="#000000" points="252.4854,-180 123.7324,-180 123.7324,-144 252.4854,-144 252.4854,-180"/>
<text text-anchor="middle" x="188.1089" y="-157.8" font-family="Times,serif" font-size="14.00" fill="#000000">aws_subnet.subnet2</text>
</g>
<!-- [root] aws_instance.second_server&#45;&gt;[root] aws_subnet.subnet2 -->
<g id="edge1" class="edge">
<title>[root] aws_instance.second_server&#45;&gt;[root] aws_subnet.subnet2</title>
<path fill="none" stroke="#000000" d="M112.5955,-215.8314C125.2747,-206.7927 140.7685,-195.7476 154.4144,-186.0198"/>
<polygon fill="#000000" stroke="#000000" points="156.5194,-188.8176 162.6305,-180.1628 152.456,-183.1176 156.5194,-188.8176"/>
</g>
<!-- [root] data.aws_ami.ubuntu -->
<g id="node8" class="node">
<title>[root] data.aws_ami.ubuntu</title>
<polygon fill="none" stroke="#000000" points="163.5815,-108 28.6362,-108 28.6362,-72 163.5815,-72 163.5815,-108"/>
<text text-anchor="middle" x="96.1089" y="-85.8" font-family="Times,serif" font-size="14.00" fill="#000000">data.aws_ami.ubuntu</text>
</g>
<!-- [root] aws_instance.second_server&#45;&gt;[root] data.aws_ami.ubuntu -->
<g id="edge2" class="edge">
<title>[root] aws_instance.second_server&#45;&gt;[root] data.aws_ami.ubuntu</title>
<path fill="none" stroke="#000000" d="M88.2487,-215.7623C89.7838,-191.201 92.5309,-147.2474 94.3368,-118.3541"/>
<polygon fill="#000000" stroke="#000000" points="97.8476,-118.2885 94.9783,-108.0896 90.8612,-117.8518 97.8476,-118.2885"/>
</g>
<!-- [root] aws_security_group.subnetsecurity -->
<g id="node2" class="node">
<title>[root] aws_security_group.subnetsecurity</title>
<polygon fill="none" stroke="#000000" points="405.73,-252 192.4878,-252 192.4878,-216 405.73,-216 405.73,-252"/>
<text text-anchor="middle" x="299.1089" y="-229.8" font-family="Times,serif" font-size="14.00" fill="#000000">aws_security_group.subnetsecurity</text>
</g>
<!-- [root] aws_vpc.our_aws_dev_vpc_one -->
<g id="node5" class="node">
<title>[root] aws_vpc.our_aws_dev_vpc_one</title>
<polygon fill="none" stroke="#000000" points="381.6719,-108 184.5459,-108 184.5459,-72 381.6719,-72 381.6719,-108"/>
<text text-anchor="middle" x="283.1089" y="-85.8" font-family="Times,serif" font-size="14.00" fill="#000000">aws_vpc.our_aws_dev_vpc_one</text>
</g>
<!-- [root] aws_security_group.subnetsecurity&#45;&gt;[root] aws_vpc.our_aws_dev_vpc_one -->
<g id="edge3" class="edge">
<title>[root] aws_security_group.subnetsecurity&#45;&gt;[root] aws_vpc.our_aws_dev_vpc_one</title>
<path fill="none" stroke="#000000" d="M297.0825,-215.7623C294.3534,-191.201 289.4697,-147.2474 286.2593,-118.3541"/>
<polygon fill="#000000" stroke="#000000" points="289.7018,-117.6419 285.1188,-108.0896 282.7447,-118.415 289.7018,-117.6419"/>
</g>
<!-- [root] aws_subnet.subnet1 -->
<g id="node3" class="node">
<title>[root] aws_subnet.subnet1</title>
<polygon fill="none" stroke="#000000" points="552.4854,-252 423.7324,-252 423.7324,-216 552.4854,-216 552.4854,-252"/>
<text text-anchor="middle" x="488.1089" y="-229.8" font-family="Times,serif" font-size="14.00" fill="#000000">aws_subnet.subnet1</text>
</g>
<!-- [root] aws_subnet.subnet1&#45;&gt;[root] aws_vpc.our_aws_dev_vpc_one -->
<g id="edge4" class="edge">
<title>[root] aws_subnet.subnet1&#45;&gt;[root] aws_vpc.our_aws_dev_vpc_one</title>
<path fill="none" stroke="#000000" d="M462.1455,-215.7623C425.3314,-189.9026 357.9141,-142.5461 317.1377,-113.9032"/>
<polygon fill="#000000" stroke="#000000" points="319.0562,-110.9736 308.8615,-108.0896 315.0326,-116.7017 319.0562,-110.9736"/>
</g>
<!-- [root] aws_subnet.subnet2&#45;&gt;[root] aws_vpc.our_aws_dev_vpc_one -->
<g id="edge5" class="edge">
<title>[root] aws_subnet.subnet2&#45;&gt;[root] aws_vpc.our_aws_dev_vpc_one</title>
<path fill="none" stroke="#000000" d="M212.0814,-143.8314C223.895,-134.8779 238.3061,-123.9558 251.0524,-114.2955"/>
<polygon fill="#000000" stroke="#000000" points="253.2884,-116.9925 259.144,-108.1628 249.0602,-111.4137 253.2884,-116.9925"/>
</g>
<!-- [root] provider.aws -->
<g id="node13" class="node">
<title>[root] provider.aws</title>
<polygon fill="none" stroke="#000000" points="190.1089,-36 111.5005,-18 190.1089,0 268.7172,-18 190.1089,-36"/>
<text text-anchor="middle" x="190.1089" y="-13.8" font-family="Times,serif" font-size="14.00" fill="#000000">provider.aws</text>
</g>
<!-- [root] aws_vpc.our_aws_dev_vpc_one&#45;&gt;[root] provider.aws -->
<g id="edge6" class="edge">
<title>[root] aws_vpc.our_aws_dev_vpc_one&#45;&gt;[root] provider.aws</title>
<path fill="none" stroke="#000000" d="M259.6411,-71.8314C246.451,-61.6197 229.9531,-48.8472 216.3381,-38.3065"/>
<polygon fill="#000000" stroke="#000000" points="218.3385,-35.4289 208.2887,-32.0747 214.0533,-40.964 218.3385,-35.4289"/>
</g>
<!-- [root] azurerm_resource_group.azy_network -->
<g id="node6" class="node">
<title>[root] azurerm_resource_group.azy_network</title>
<polygon fill="none" stroke="#000000" points="826.8444,-180 595.3734,-180 595.3734,-144 826.8444,-144 826.8444,-180"/>
<text text-anchor="middle" x="711.1089" y="-157.8" font-family="Times,serif" font-size="14.00" fill="#000000">azurerm_resource_group.azy_network</text>
</g>
<!-- [root] provider.azurerm -->
<g id="node14" class="node">
<title>[root] provider.azurerm</title>
<polygon fill="none" stroke="#000000" points="711.1089,-108 610.9726,-90 711.1089,-72 811.2451,-90 711.1089,-108"/>
<text text-anchor="middle" x="711.1089" y="-85.8" font-family="Times,serif" font-size="14.00" fill="#000000">provider.azurerm</text>
</g>
<!-- [root] azurerm_resource_group.azy_network&#45;&gt;[root] provider.azurerm -->
<g id="edge7" class="edge">
<title>[root] azurerm_resource_group.azy_network&#45;&gt;[root] provider.azurerm</title>
<path fill="none" stroke="#000000" d="M711.1089,-143.8314C711.1089,-136.131 711.1089,-126.9743 711.1089,-118.4166"/>
<polygon fill="#000000" stroke="#000000" points="714.609,-118.4132 711.1089,-108.4133 707.609,-118.4133 714.609,-118.4132"/>
</g>
<!-- [root] azurerm_virtual_network.blue_virtual_network -->
<g id="node7" class="node">
<title>[root] azurerm_virtual_network.blue_virtual_network</title>
<polygon fill="none" stroke="#000000" points="852.4098,-252 569.8079,-252 569.8079,-216 852.4098,-216 852.4098,-252"/>
<text text-anchor="middle" x="711.1089" y="-229.8" font-family="Times,serif" font-size="14.00" fill="#000000">azurerm_virtual_network.blue_virtual_network</text>
</g>
<!-- [root] azurerm_virtual_network.blue_virtual_network&#45;&gt;[root] azurerm_resource_group.azy_network -->
<g id="edge8" class="edge">
<title>[root] azurerm_virtual_network.blue_virtual_network&#45;&gt;[root] azurerm_resource_group.azy_network</title>
<path fill="none" stroke="#000000" d="M711.1089,-215.8314C711.1089,-208.131 711.1089,-198.9743 711.1089,-190.4166"/>
<polygon fill="#000000" stroke="#000000" points="714.609,-190.4132 711.1089,-180.4133 707.609,-190.4133 714.609,-190.4132"/>
</g>
<!-- [root] data.aws_ami.ubuntu&#45;&gt;[root] provider.aws -->
<g id="edge9" class="edge">
<title>[root] data.aws_ami.ubuntu&#45;&gt;[root] provider.aws</title>
<path fill="none" stroke="#000000" d="M119.8291,-71.8314C133.1609,-61.6197 149.8362,-48.8472 163.5977,-38.3065"/>
<polygon fill="#000000" stroke="#000000" points="165.9231,-40.934 171.7336,-32.0747 161.6665,-35.3769 165.9231,-40.934"/>
</g>
<!-- [root] google_compute_instance.server -->
<g id="node9" class="node">
<title>[root] google_compute_instance.server</title>
<polygon fill="none" stroke="#000000" points="1313.9888,-252 1114.229,-252 1114.229,-216 1313.9888,-216 1313.9888,-252"/>
<text text-anchor="middle" x="1214.1089" y="-229.8" font-family="Times,serif" font-size="14.00" fill="#000000">google_compute_instance.server</text>
</g>
<!-- [root] google_compute_subnetwork.dev&#45;subnet -->
<g id="node11" class="node">
<title>[root] google_compute_subnetwork.dev&#45;subnet</title>
<polygon fill="none" stroke="#000000" points="1330.1718,-180 1084.046,-180 1084.046,-144 1330.1718,-144 1330.1718,-180"/>
<text text-anchor="middle" x="1207.1089" y="-157.8" font-family="Times,serif" font-size="14.00" fill="#000000">google_compute_subnetwork.dev&#45;subnet</text>
</g>
<!-- [root] google_compute_instance.server&#45;&gt;[root] google_compute_subnetwork.dev&#45;subnet -->
<g id="edge10" class="edge">
<title>[root] google_compute_instance.server&#45;&gt;[root] google_compute_subnetwork.dev&#45;subnet</title>
<path fill="none" stroke="#000000" d="M1212.3425,-215.8314C1211.5938,-208.131 1210.7036,-198.9743 1209.8716,-190.4166"/>
<polygon fill="#000000" stroke="#000000" points="1213.3504,-190.0276 1208.8991,-180.4133 1206.3832,-190.7051 1213.3504,-190.0276"/>
</g>
<!-- [root] google_compute_network.our_gcp_dev_vpc_one -->
<g id="node10" class="node">
<title>[root] google_compute_network.our_gcp_dev_vpc_one</title>
<polygon fill="none" stroke="#000000" points="1346.8131,-108 1053.4047,-108 1053.4047,-72 1346.8131,-72 1346.8131,-108"/>
<text text-anchor="middle" x="1200.1089" y="-85.8" font-family="Times,serif" font-size="14.00" fill="#000000">google_compute_network.our_gcp_dev_vpc_one</text>
</g>
<!-- [root] provider.google -->
<g id="node15" class="node">
<title>[root] provider.google</title>
<polygon fill="none" stroke="#000000" points="1126.1089,-36 1032.8225,-18 1126.1089,0 1219.3953,-18 1126.1089,-36"/>
<text text-anchor="middle" x="1126.1089" y="-13.8" font-family="Times,serif" font-size="14.00" fill="#000000">provider.google</text>
</g>
<!-- [root] google_compute_network.our_gcp_dev_vpc_one&#45;&gt;[root] provider.google -->
<g id="edge11" class="edge">
<title>[root] google_compute_network.our_gcp_dev_vpc_one&#45;&gt;[root] provider.google</title>
<path fill="none" stroke="#000000" d="M1181.4356,-71.8314C1171.6507,-62.311 1159.5782,-50.5647 1149.2096,-40.4763"/>
<polygon fill="#000000" stroke="#000000" points="1151.6259,-37.944 1142.0178,-33.479 1146.7444,-42.9611 1151.6259,-37.944"/>
</g>
<!-- [root] google_compute_subnetwork.dev&#45;subnet&#45;&gt;[root] google_compute_network.our_gcp_dev_vpc_one -->
<g id="edge12" class="edge">
<title>[root] google_compute_subnetwork.dev&#45;subnet&#45;&gt;[root] google_compute_network.our_gcp_dev_vpc_one</title>
<path fill="none" stroke="#000000" d="M1205.3425,-143.8314C1204.5938,-136.131 1203.7036,-126.9743 1202.8716,-118.4166"/>
<polygon fill="#000000" stroke="#000000" points="1206.3504,-118.0276 1201.8991,-108.4133 1199.3832,-118.7051 1206.3504,-118.0276"/>
</g>
<!-- [root] google_container_cluster.criswendler -->
<g id="node12" class="node">
<title>[root] google_container_cluster.criswendler</title>
<polygon fill="none" stroke="#000000" points="1095.6513,-252 870.5664,-252 870.5664,-216 1095.6513,-216 1095.6513,-252"/>
<text text-anchor="middle" x="983.1089" y="-229.8" font-family="Times,serif" font-size="14.00" fill="#000000">google_container_cluster.criswendler</text>
</g>
<!-- [root] google_container_cluster.criswendler&#45;&gt;[root] provider.google -->
<g id="edge13" class="edge">
<title>[root] google_container_cluster.criswendler&#45;&gt;[root] provider.google</title>
<path fill="none" stroke="#000000" d="M986.1211,-215.8905C992.2117,-183.8797 1008.5529,-116.4868 1044.1089,-72 1056.1189,-56.9734 1073.4751,-44.7013 1089.1302,-35.6754"/>
<polygon fill="#000000" stroke="#000000" points="1091.0246,-38.6278 1098.0978,-30.7398 1087.6494,-32.4953 1091.0246,-38.6278"/>
</g>
<!-- [root] var.client_id -->
<g id="node16" class="node">
<title>[root] var.client_id</title>
<polygon fill="none" stroke="#000000" points="799.7065,-36 720.5113,-36 720.5113,0 805.7065,0 805.7065,-30 799.7065,-36"/>
<polyline fill="none" stroke="#000000" points="799.7065,-36 799.7065,-30 "/>
<polyline fill="none" stroke="#000000" points="805.7065,-30 799.7065,-30 "/>
<text text-anchor="middle" x="763.1089" y="-13.8" font-family="Times,serif" font-size="14.00" fill="#000000">var.client_id</text>
</g>
<!-- [root] provider.azurerm&#45;&gt;[root] var.client_id -->
<g id="edge24" class="edge">
<title>[root] provider.azurerm&#45;&gt;[root] var.client_id</title>
<path fill="none" stroke="#000000" d="M722.6494,-74.0209C728.8977,-65.3693 736.7798,-54.4557 743.9234,-44.5645"/>
<polygon fill="#000000" stroke="#000000" points="746.9338,-46.3741 749.9514,-36.2181 741.2591,-42.2756 746.9338,-46.3741"/>
</g>
<!-- [root] var.client_secret -->
<g id="node17" class="node">
<title>[root] var.client_secret</title>
<polygon fill="none" stroke="#000000" points="924.9581,-36 823.2597,-36 823.2597,0 930.9581,0 930.9581,-30 924.9581,-36"/>
<polyline fill="none" stroke="#000000" points="924.9581,-36 924.9581,-30 "/>
<polyline fill="none" stroke="#000000" points="930.9581,-30 924.9581,-30 "/>
<text text-anchor="middle" x="877.1089" y="-13.8" font-family="Times,serif" font-size="14.00" fill="#000000">var.client_secret</text>
</g>
<!-- [root] provider.azurerm&#45;&gt;[root] var.client_secret -->
<g id="edge25" class="edge">
<title>[root] provider.azurerm&#45;&gt;[root] var.client_secret</title>
<path fill="none" stroke="#000000" d="M740.7864,-77.1278C764.4976,-66.8434 798.2773,-52.192 826.2782,-40.0471"/>
<polygon fill="#000000" stroke="#000000" points="827.7482,-43.2246 835.5297,-36.0344 824.9627,-36.8026 827.7482,-43.2246"/>
</g>
<!-- [root] var.subscription_id -->
<g id="node18" class="node">
<title>[root] var.subscription_id</title>
<polygon fill="none" stroke="#000000" points="589.5503,-36 472.6675,-36 472.6675,0 595.5503,0 595.5503,-30 589.5503,-36"/>
<polyline fill="none" stroke="#000000" points="589.5503,-36 589.5503,-30 "/>
<polyline fill="none" stroke="#000000" points="595.5503,-30 589.5503,-30 "/>
<text text-anchor="middle" x="534.1089" y="-13.8" font-family="Times,serif" font-size="14.00" fill="#000000">var.subscription_id</text>
</g>
<!-- [root] provider.azurerm&#45;&gt;[root] var.subscription_id -->
<g id="edge26" class="edge">
<title>[root] provider.azurerm&#45;&gt;[root] var.subscription_id</title>
<path fill="none" stroke="#000000" d="M680.2778,-77.4586C654.8957,-67.1336 618.3039,-52.2488 588.0825,-39.9554"/>
<polygon fill="#000000" stroke="#000000" points="589.0982,-36.5901 578.5165,-36.0641 586.4606,-43.0742 589.0982,-36.5901"/>
</g>
<!-- [root] var.tenant_id -->
<g id="node19" class="node">
<title>[root] var.tenant_id</title>
<polygon fill="none" stroke="#000000" points="696.3164,-36 613.9014,-36 613.9014,0 702.3164,0 702.3164,-30 696.3164,-36"/>
<polyline fill="none" stroke="#000000" points="696.3164,-36 696.3164,-30 "/>
<polyline fill="none" stroke="#000000" points="702.3164,-30 696.3164,-30 "/>
<text text-anchor="middle" x="658.1089" y="-13.8" font-family="Times,serif" font-size="14.00" fill="#000000">var.tenant_id</text>
</g>
<!-- [root] provider.azurerm&#45;&gt;[root] var.tenant_id -->
<g id="edge27" class="edge">
<title>[root] provider.azurerm&#45;&gt;[root] var.tenant_id</title>
<path fill="none" stroke="#000000" d="M699.3465,-74.0209C692.9779,-65.3693 684.9443,-54.4557 677.6633,-44.5645"/>
<polygon fill="#000000" stroke="#000000" points="680.2663,-42.1966 671.5194,-36.2181 674.6289,-46.3463 680.2663,-42.1966"/>
</g>
<!-- [root] meta.count&#45;boundary (EachMode fixup) -->
<g id="node20" class="node">
<title>[root] meta.count&#45;boundary (EachMode fixup)</title>
<ellipse fill="none" stroke="#000000" cx="542.1089" cy="-306" rx="174.7874" ry="18"/>
<text text-anchor="middle" x="542.1089" y="-301.8" font-family="Times,serif" font-size="14.00" fill="#000000">[root] meta.count&#45;boundary (EachMode fixup)</text>
</g>
<!-- [root] meta.count&#45;boundary (EachMode fixup)&#45;&gt;[root] aws_instance.second_server -->
<g id="edge14" class="edge">
<title>[root] meta.count&#45;boundary (EachMode fixup)&#45;&gt;[root] aws_instance.second_server</title>
<path fill="none" stroke="#000000" d="M438.6557,-291.4468C369.3714,-281.4623 275.8733,-267.5322 184.4471,-252.1987"/>
<polygon fill="#000000" stroke="#000000" points="184.9051,-248.7266 174.4627,-250.5171 183.7425,-255.6294 184.9051,-248.7266"/>
</g>
<!-- [root] meta.count&#45;boundary (EachMode fixup)&#45;&gt;[root] aws_security_group.subnetsecurity -->
<g id="edge15" class="edge">
<title>[root] meta.count&#45;boundary (EachMode fixup)&#45;&gt;[root] aws_security_group.subnetsecurity</title>
<path fill="none" stroke="#000000" d="M484.5213,-288.937C450.2686,-278.7881 406.5421,-265.8321 370.1562,-255.0511"/>
<polygon fill="#000000" stroke="#000000" points="370.6845,-251.5572 360.1021,-252.0721 368.6958,-258.2688 370.6845,-251.5572"/>
</g>
<!-- [root] meta.count&#45;boundary (EachMode fixup)&#45;&gt;[root] aws_subnet.subnet1 -->
<g id="edge16" class="edge">
<title>[root] meta.count&#45;boundary (EachMode fixup)&#45;&gt;[root] aws_subnet.subnet1</title>
<path fill="none" stroke="#000000" d="M528.4824,-287.8314C522.2628,-279.5386 514.7767,-269.557 507.9489,-260.4533"/>
<polygon fill="#000000" stroke="#000000" points="510.7189,-258.3133 501.9188,-252.4133 505.1189,-262.5133 510.7189,-258.3133"/>
</g>
<!-- [root] meta.count&#45;boundary (EachMode fixup)&#45;&gt;[root] azurerm_virtual_network.blue_virtual_network -->
<g id="edge17" class="edge">
<title>[root] meta.count&#45;boundary (EachMode fixup)&#45;&gt;[root] azurerm_virtual_network.blue_virtual_network</title>
<path fill="none" stroke="#000000" d="M583.4509,-288.3868C606.3119,-278.6472 634.9338,-266.4533 659.2791,-256.0813"/>
<polygon fill="#000000" stroke="#000000" points="660.8966,-259.1967 668.7246,-252.0572 658.1529,-252.7568 660.8966,-259.1967"/>
</g>
<!-- [root] meta.count&#45;boundary (EachMode fixup)&#45;&gt;[root] google_compute_instance.server -->
<g id="edge18" class="edge">
<title>[root] meta.count&#45;boundary (EachMode fixup)&#45;&gt;[root] google_compute_instance.server</title>
<path fill="none" stroke="#000000" d="M668.7993,-293.5592C688,-291.6873 707.5786,-289.7864 726.1089,-288 891.3234,-272.0723 935.641,-273.7263 1104.1115,-252.0831"/>
<polygon fill="#000000" stroke="#000000" points="1104.5965,-255.5496 1114.065,-250.796 1103.6987,-248.6074 1104.5965,-255.5496"/>
</g>
<!-- [root] meta.count&#45;boundary (EachMode fixup)&#45;&gt;[root] google_container_cluster.criswendler -->
<g id="edge19" class="edge">
<title>[root] meta.count&#45;boundary (EachMode fixup)&#45;&gt;[root] google_container_cluster.criswendler</title>
<path fill="none" stroke="#000000" d="M635.3641,-290.7747C701.6325,-279.9553 791.2122,-265.3301 862.8549,-253.6333"/>
<polygon fill="#000000" stroke="#000000" points="863.5353,-257.0686 872.8407,-252.003 862.4074,-250.1601 863.5353,-257.0686"/>
</g>
<!-- [root] provider.aws (close) -->
<g id="node21" class="node">
<title>[root] provider.aws (close)</title>
<ellipse fill="none" stroke="#000000" cx="245.1089" cy="-306" rx="104.3276" ry="18"/>
<text text-anchor="middle" x="245.1089" y="-301.8" font-family="Times,serif" font-size="14.00" fill="#000000">[root] provider.aws (close)</text>
</g>
<!-- [root] provider.aws (close)&#45;&gt;[root] aws_instance.second_server -->
<g id="edge20" class="edge">
<title>[root] provider.aws (close)&#45;&gt;[root] aws_instance.second_server</title>
<path fill="none" stroke="#000000" d="M208.0649,-289.1192C186.5804,-279.3288 159.2638,-266.8807 136.0283,-256.2924"/>
<polygon fill="#000000" stroke="#000000" points="137.2338,-252.9955 126.6827,-252.0336 134.3311,-259.3653 137.2338,-252.9955"/>
</g>
<!-- [root] provider.aws (close)&#45;&gt;[root] aws_security_group.subnetsecurity -->
<g id="edge21" class="edge">
<title>[root] provider.aws (close)&#45;&gt;[root] aws_security_group.subnetsecurity</title>
<path fill="none" stroke="#000000" d="M258.7354,-287.8314C264.9549,-279.5386 272.4411,-269.557 279.2689,-260.4533"/>
<polygon fill="#000000" stroke="#000000" points="282.0989,-262.5133 285.2989,-252.4133 276.4989,-258.3133 282.0989,-262.5133"/>
</g>
<!-- [root] provider.aws (close)&#45;&gt;[root] aws_subnet.subnet1 -->
<g id="edge22" class="edge">
<title>[root] provider.aws (close)&#45;&gt;[root] aws_subnet.subnet1</title>
<path fill="none" stroke="#000000" d="M297.8363,-290.3771C332.8174,-280.0123 379.1391,-266.2874 417.3191,-254.9748"/>
<polygon fill="#000000" stroke="#000000" points="418.752,-258.2007 427.3456,-252.0039 416.7633,-251.4891 418.752,-258.2007"/>
</g>
<!-- [root] provider.azurerm (close) -->
<g id="node22" class="node">
<title>[root] provider.azurerm (close)</title>
<ellipse fill="none" stroke="#000000" cx="854.1089" cy="-306" rx="119.2527" ry="18"/>
<text text-anchor="middle" x="854.1089" y="-301.8" font-family="Times,serif" font-size="14.00" fill="#000000">[root] provider.azurerm (close)</text>
</g>
<!-- [root] provider.azurerm (close)&#45;&gt;[root] azurerm_virtual_network.blue_virtual_network -->
<g id="edge23" class="edge">
<title>[root] provider.azurerm (close)&#45;&gt;[root] azurerm_virtual_network.blue_virtual_network</title>
<path fill="none" stroke="#000000" d="M819.8568,-288.7542C800.797,-279.1576 776.8378,-267.0943 756.2626,-256.7347"/>
<polygon fill="#000000" stroke="#000000" points="757.5827,-253.4809 747.077,-252.1098 754.4347,-259.7331 757.5827,-253.4809"/>
</g>
<!-- [root] provider.google (close) -->
<g id="node23" class="node">
<title>[root] provider.google (close)</title>
<ellipse fill="none" stroke="#000000" cx="1106.1089" cy="-306" rx="114.4592" ry="18"/>
<text text-anchor="middle" x="1106.1089" y="-301.8" font-family="Times,serif" font-size="14.00" fill="#000000">[root] provider.google (close)</text>
</g>
<!-- [root] provider.google (close)&#45;&gt;[root] google_compute_instance.server -->
<g id="edge28" class="edge">
<title>[root] provider.google (close)&#45;&gt;[root] google_compute_instance.server</title>
<path fill="none" stroke="#000000" d="M1132.5287,-288.3868C1146.3101,-279.1992 1163.3677,-267.8275 1178.3167,-257.8615"/>
<polygon fill="#000000" stroke="#000000" points="1180.4551,-260.6424 1186.8341,-252.1832 1176.5721,-254.818 1180.4551,-260.6424"/>
</g>
<!-- [root] provider.google (close)&#45;&gt;[root] google_container_cluster.criswendler -->
<g id="edge29" class="edge">
<title>[root] provider.google (close)&#45;&gt;[root] google_container_cluster.criswendler</title>
<path fill="none" stroke="#000000" d="M1076.334,-288.5708C1060.2292,-279.1436 1040.1274,-267.3767 1022.7175,-257.1855"/>
<polygon fill="#000000" stroke="#000000" points="1024.2924,-254.0519 1013.8941,-252.0206 1020.7561,-260.093 1024.2924,-254.0519"/>
</g>
<!-- [root] root -->
<g id="node24" class="node">
<title>[root] root</title>
<ellipse fill="none" stroke="#000000" cx="698.1089" cy="-378" rx="46.8976" ry="18"/>
<text text-anchor="middle" x="698.1089" y="-373.8" font-family="Times,serif" font-size="14.00" fill="#000000">[root] root</text>
</g>
<!-- [root] root&#45;&gt;[root] meta.count&#45;boundary (EachMode fixup) -->
<g id="edge30" class="edge">
<title>[root] root&#45;&gt;[root] meta.count&#45;boundary (EachMode fixup)</title>
<path fill="none" stroke="#000000" d="M668.0305,-364.1177C645.7935,-353.8544 615.0723,-339.6754 589.5415,-327.892"/>
<polygon fill="#000000" stroke="#000000" points="590.9419,-324.6836 580.3956,-323.6708 588.0085,-331.0393 590.9419,-324.6836"/>
</g>
<!-- [root] root&#45;&gt;[root] provider.aws (close) -->
<g id="edge31" class="edge">
<title>[root] root&#45;&gt;[root] provider.aws (close)</title>
<path fill="none" stroke="#000000" d="M654.9026,-371.1443C590.3247,-360.896 464.7977,-340.9697 358.1089,-324 349.5563,-322.6396 340.6398,-321.2206 331.7312,-319.8024"/>
<polygon fill="#000000" stroke="#000000" points="332.1224,-316.3207 321.6964,-318.2046 331.0217,-323.2336 332.1224,-316.3207"/>
</g>
<!-- [root] root&#45;&gt;[root] provider.azurerm (close) -->
<g id="edge32" class="edge">
<title>[root] root&#45;&gt;[root] provider.azurerm (close)</title>
<path fill="none" stroke="#000000" d="M728.1873,-364.1177C750.7397,-353.7089 782.0187,-339.2724 807.7595,-327.392"/>
<polygon fill="#000000" stroke="#000000" points="809.3531,-330.5114 816.9659,-323.1429 806.4196,-324.1557 809.3531,-330.5114"/>
</g>
<!-- [root] root&#45;&gt;[root] provider.google (close) -->
<g id="edge33" class="edge">
<title>[root] root&#45;&gt;[root] provider.google (close)</title>
<path fill="none" stroke="#000000" d="M740.6174,-370.4985C806.3867,-358.8922 934.1456,-336.3465 1019.8121,-321.2289"/>
<polygon fill="#000000" stroke="#000000" points="1020.5437,-324.6539 1029.7833,-319.4692 1019.3271,-317.7604 1020.5437,-324.6539"/>
</g>
</g>
</svg>
